<svg width="781" height="181" viewBox="0 0 781 181" fill="none" xmlns="http://www.w3.org/2000/svg">
<path d="M63.655 180.957L86.8928 139.692L102.699 112.121L129.716 65.1198L145.629 37.0088L158.952 60.1236C160.988 63.8245 160.988 66.4151 158.952 70.116L111.026 153.386H173.386C177.457 153.386 178.752 150.61 177.087 147.834L172.461 139.692H133.787L149.515 112.121H185.599C187.564 112.785 188.625 113.3 190.225 115.267L213.91 156.531C219.832 166.709 210.395 180.957 201.327 180.957H63.655Z" fill="black"/>
<path d="M31.8275 181H0L99.9235 6.8741C106.03 -2.74814 122.869 -1.82293 128.235 6.8741L145.629 37.0518L129.715 65.1628L116.762 42.5875C114.667 40.9523 113.492 40.8982 111.396 42.5875L71.7969 111.979L102.699 112.164L86.8927 139.735H55.6981L31.8275 181Z" fill="black"/>
<path d="M145.686 37.3789L129.646 65.1747L126.57 59.6814L145.686 37.3789Z" fill="white" fill-opacity="0.2"/>
<path d="M80.5622 112.136H91.5487H102.645L86.8857 139.712H55.5131L80.5622 112.136Z" fill="url(#paint0_linear_176_256)"/>
<path d="M362.375 145H346.125V123H289V145H272.75V100.188C272.75 93.6458 273.875 87.625 276.125 82.125C278.375 76.625 281.5 71.8958 285.5 67.9375C289.5 63.9792 294.229 60.8958 299.688 58.6875C305.146 56.4792 311.104 55.375 317.562 55.375H354.188C355.312 55.375 356.375 55.5833 357.375 56C358.375 56.4167 359.25 57 360 57.75C360.75 58.5 361.333 59.375 361.75 60.375C362.167 61.375 362.375 62.4375 362.375 63.5625V145ZM289 106.75H346.125V71.625H317.562C317.062 71.625 316 71.7083 314.375 71.875C312.792 72 310.938 72.3542 308.812 72.9375C306.729 73.5208 304.521 74.4167 302.188 75.625C299.854 76.8333 297.708 78.5 295.75 80.625C293.792 82.75 292.167 85.4167 290.875 88.625C289.625 91.7917 289 95.6458 289 100.188V106.75ZM469.75 136.812C469.75 137.979 469.542 139.062 469.125 140.062C468.708 141.062 468.125 141.938 467.375 142.688C466.667 143.396 465.812 143.958 464.812 144.375C463.812 144.792 462.729 145 461.562 145H402.938C401.438 145 399.812 144.833 398.062 144.5C396.354 144.125 394.646 143.562 392.938 142.812C391.271 142.062 389.667 141.104 388.125 139.938C386.583 138.729 385.208 137.292 384 135.625C382.833 133.917 381.896 131.958 381.188 129.75C380.479 127.5 380.125 124.979 380.125 122.188V78.1875C380.125 76.6875 380.292 75.0833 380.625 73.375C381 71.625 381.562 69.9167 382.312 68.25C383.062 66.5417 384.042 64.9167 385.25 63.375C386.458 61.8333 387.896 60.4792 389.562 59.3125C391.271 58.1042 393.229 57.1458 395.438 56.4375C397.646 55.7292 400.146 55.375 402.938 55.375H469V71.625H402.938C400.812 71.625 399.188 72.1875 398.062 73.3125C396.938 74.4375 396.375 76.1042 396.375 78.3125V122.188C396.375 124.271 396.938 125.896 398.062 127.062C399.229 128.188 400.854 128.75 402.938 128.75H453.5V108.375H410.25V92H461.562C462.729 92 463.812 92.2292 464.812 92.6875C465.812 93.1042 466.667 93.6875 467.375 94.4375C468.125 95.1875 468.708 96.0625 469.125 97.0625C469.542 98.0208 469.75 99.0625 469.75 100.188V136.812ZM576.125 107.5C576.125 112.958 575.167 117.979 573.25 122.562C571.375 127.146 568.771 131.104 565.438 134.438C562.104 137.729 558.146 140.312 553.562 142.188C548.979 144.062 544 145 538.625 145H494.75C493.583 145 492.5 144.792 491.5 144.375C490.5 143.958 489.625 143.396 488.875 142.688C488.167 141.938 487.604 141.062 487.188 140.062C486.771 139.062 486.562 137.979 486.562 136.812V63.5625C486.562 62.4375 486.771 61.375 487.188 60.375C487.604 59.375 488.167 58.5 488.875 57.75C489.625 57 490.5 56.4167 491.5 56C492.5 55.5833 493.583 55.375 494.75 55.375H538.625C544 55.375 548.979 56.3125 553.562 58.1875C558.146 60.0625 562.104 62.6667 565.438 66C568.771 69.2917 571.375 73.25 573.25 77.875C575.167 82.4583 576.125 87.4583 576.125 92.875V107.5ZM559.875 92.875C559.875 89.7083 559.354 86.8125 558.312 84.1875C557.312 81.5625 555.875 79.3333 554 77.5C552.125 75.625 549.875 74.1875 547.25 73.1875C544.667 72.1458 541.792 71.625 538.625 71.625H502.812V128.75H538.625C541.792 128.75 544.667 128.25 547.25 127.25C549.875 126.208 552.125 124.771 554 122.938C555.875 121.062 557.312 118.833 558.312 116.25C559.354 113.625 559.875 110.708 559.875 107.5V92.875ZM665.75 108.375H614.438V92H665.75V108.375ZM673.062 145H614.438C612.188 145 609.729 144.604 607.062 143.812C604.396 143.021 601.917 141.729 599.625 139.938C597.375 138.104 595.479 135.75 593.938 132.875C592.438 129.958 591.688 126.396 591.688 122.188V63.5625C591.688 62.4375 591.896 61.375 592.312 60.375C592.729 59.375 593.292 58.5 594 57.75C594.75 57 595.625 56.4167 596.625 56C597.625 55.5833 598.708 55.375 599.875 55.375H673.062V71.625H607.938V122.188C607.938 124.312 608.5 125.938 609.625 127.062C610.75 128.188 612.396 128.75 614.562 128.75H673.062V145ZM729.75 87.375L757.125 55.375H779.312L740.75 100.312L779.062 145H757L729.75 113.25L702.625 145H680.5L718.75 100.312L680.375 55.375H702.375L729.75 87.375Z" fill="black"/>
<defs>
<linearGradient id="paint0_linear_176_256" x1="89.3514" y1="139.712" x2="66.8291" y2="124.441" gradientUnits="userSpaceOnUse">
<stop stop-color="#4E4E4E"/>
<stop offset="0.947917" stop-color="#464646" stop-opacity="0"/>
</linearGradient>
</defs>
</svg>
