<svg width="959" height="310" viewBox="0 0 959 310" fill="none" xmlns="http://www.w3.org/2000/svg">
<circle cx="155" cy="155" r="155" fill="white"/>
<path d="M113.786 235.959L135.612 197.203L150.458 171.307L175.832 127.162L190.779 100.76L203.292 122.47C205.204 125.946 205.204 128.379 203.292 131.855L158.279 210.064H216.848C220.672 210.064 221.889 207.457 220.324 204.85L215.979 197.203H179.656L194.429 171.307H228.319C230.165 171.93 231.161 172.414 232.664 174.261L254.91 213.018C260.472 222.577 251.608 235.959 243.092 235.959H113.786Z" fill="url(#paint0_linear_210_1538)"/>
<path d="M83.8932 236H54L147.851 72.4563C153.586 63.4189 169.402 64.2879 174.442 72.4563L190.779 100.8L175.832 127.203L163.666 105.999C161.698 104.463 160.595 104.413 158.626 105.999L121.434 171.173L150.458 171.347L135.612 197.243H106.313L83.8932 236Z" fill="url(#paint1_linear_210_1538)"/>
<path d="M190.832 101.107L175.767 127.213L172.878 122.054L190.832 101.107Z" fill="#401D0D" fill-opacity="0.2"/>
<path d="M129.666 171.322H139.985H150.407L135.605 197.222H106.139L129.666 171.322Z" fill="url(#paint2_linear_210_1538)"/>
<path d="M485.308 210H466.899V185.078H402.188V210H383.779V159.236C383.779 151.825 385.054 145.005 387.603 138.774C390.151 132.544 393.691 127.187 398.223 122.703C402.754 118.219 408.111 114.726 414.294 112.224C420.478 109.722 427.227 108.472 434.543 108.472H476.033C477.307 108.472 478.511 108.708 479.644 109.18C480.776 109.652 481.768 110.312 482.617 111.162C483.467 112.012 484.128 113.003 484.6 114.136C485.072 115.269 485.308 116.472 485.308 117.747V210ZM402.188 166.67H466.899V126.88H434.543C433.977 126.88 432.773 126.974 430.933 127.163C429.139 127.305 427.039 127.706 424.631 128.367C422.271 129.028 419.77 130.042 417.126 131.411C414.483 132.78 412.052 134.668 409.834 137.075C407.616 139.482 405.775 142.503 404.312 146.138C402.896 149.725 402.188 154.091 402.188 159.236V166.67ZM606.943 200.725C606.943 202.047 606.707 203.274 606.235 204.407C605.763 205.54 605.103 206.531 604.253 207.38C603.451 208.183 602.483 208.82 601.35 209.292C600.217 209.764 598.99 210 597.668 210H531.257C529.558 210 527.717 209.811 525.735 209.434C523.8 209.009 521.864 208.372 519.929 207.522C518.041 206.672 516.224 205.587 514.478 204.265C512.731 202.896 511.174 201.268 509.805 199.38C508.483 197.445 507.421 195.226 506.619 192.725C505.816 190.176 505.415 187.32 505.415 184.158V134.314C505.415 132.615 505.604 130.798 505.981 128.862C506.406 126.88 507.043 124.945 507.893 123.057C508.743 121.121 509.852 119.281 511.221 117.534C512.59 115.788 514.218 114.254 516.106 112.932C518.041 111.563 520.26 110.478 522.761 109.675C525.263 108.873 528.095 108.472 531.257 108.472H606.094V126.88H531.257C528.85 126.88 527.009 127.517 525.735 128.792C524.46 130.066 523.823 131.954 523.823 134.456V184.158C523.823 186.518 524.46 188.359 525.735 189.68C527.056 190.955 528.897 191.592 531.257 191.592H588.535V168.511H539.541V149.961H597.668C598.99 149.961 600.217 150.221 601.35 150.74C602.483 151.212 603.451 151.873 604.253 152.722C605.103 153.572 605.763 154.563 606.235 155.696C606.707 156.781 606.943 157.961 606.943 159.236V200.725ZM727.446 167.52C727.446 173.703 726.361 179.39 724.189 184.583C722.065 189.775 719.115 194.259 715.339 198.035C711.563 201.764 707.079 204.69 701.887 206.814C696.695 208.938 691.055 210 684.966 210H635.264C633.942 210 632.715 209.764 631.582 209.292C630.449 208.82 629.458 208.183 628.608 207.38C627.806 206.531 627.169 205.54 626.697 204.407C626.225 203.274 625.989 202.047 625.989 200.725V117.747C625.989 116.472 626.225 115.269 626.697 114.136C627.169 113.003 627.806 112.012 628.608 111.162C629.458 110.312 630.449 109.652 631.582 109.18C632.715 108.708 633.942 108.472 635.264 108.472H684.966C691.055 108.472 696.695 109.534 701.887 111.658C707.079 113.782 711.563 116.732 715.339 120.508C719.115 124.237 722.065 128.721 724.189 133.96C726.361 139.152 727.446 144.816 727.446 150.952V167.52ZM709.038 150.952C709.038 147.365 708.448 144.084 707.268 141.111C706.135 138.137 704.507 135.612 702.383 133.535C700.259 131.411 697.71 129.783 694.736 128.65C691.81 127.47 688.553 126.88 684.966 126.88H644.397V191.592H684.966C688.553 191.592 691.81 191.025 694.736 189.893C697.71 188.713 700.259 187.084 702.383 185.007C704.507 182.883 706.135 180.358 707.268 177.432C708.448 174.458 709.038 171.154 709.038 167.52V150.952ZM828.975 168.511H770.847V149.961H828.975V168.511ZM837.258 210H770.847C768.298 210 765.514 209.552 762.493 208.655C759.472 207.758 756.663 206.295 754.067 204.265C751.519 202.188 749.371 199.521 747.625 196.265C745.925 192.961 745.076 188.925 745.076 184.158V117.747C745.076 116.472 745.312 115.269 745.784 114.136C746.256 113.003 746.893 112.012 747.695 111.162C748.545 110.312 749.536 109.652 750.669 109.18C751.802 108.708 753.029 108.472 754.351 108.472H837.258V126.88H763.484V184.158C763.484 186.565 764.121 188.406 765.396 189.68C766.67 190.955 768.534 191.592 770.989 191.592H837.258V210ZM901.475 144.722L932.485 108.472H957.62L913.936 159.377L957.336 210H932.344L901.475 174.033L870.747 210H845.684L889.014 159.377L845.542 108.472H870.464L901.475 144.722Z" fill="white"/>
<defs>
<linearGradient id="paint0_linear_210_1538" x1="185.215" y1="100.76" x2="185.215" y2="235.959" gradientUnits="userSpaceOnUse">
<stop stop-color="#D65E1F"/>
<stop offset="1" stop-color="#BC4814"/>
</linearGradient>
<linearGradient id="paint1_linear_210_1538" x1="122.389" y1="66" x2="122.389" y2="236" gradientUnits="userSpaceOnUse">
<stop stop-color="#DD6422"/>
<stop offset="1" stop-color="#BB4814"/>
</linearGradient>
<linearGradient id="paint2_linear_210_1538" x1="137.921" y1="197.222" x2="116.768" y2="182.879" gradientUnits="userSpaceOnUse">
<stop stop-color="#401D0D"/>
<stop offset="0.947917" stop-color="#C34E17" stop-opacity="0"/>
</linearGradient>
</defs>
</svg>
