<svg width="871" height="310" viewBox="0 0 871 310" fill="none" xmlns="http://www.w3.org/2000/svg">
<circle cx="155" cy="155" r="155" fill="#0D0300"/>
<path d="M113.786 235.959L135.612 197.203L150.458 171.307L175.832 127.162L190.779 100.76L203.292 122.47C205.204 125.946 205.204 128.379 203.292 131.855L158.279 210.064H216.848C220.672 210.064 221.889 207.457 220.324 204.85L215.979 197.203H179.656L194.429 171.307H228.319C230.165 171.93 231.161 172.414 232.664 174.261L254.91 213.018C260.472 222.577 251.608 235.959 243.092 235.959H113.786Z" fill="url(#paint0_linear_174_173)"/>
<path d="M83.8932 236H54L147.851 72.4563C153.586 63.4189 169.402 64.2879 174.442 72.4563L190.779 100.8L175.832 127.203L163.666 105.999C161.698 104.463 160.595 104.413 158.626 105.999L121.434 171.173L150.458 171.347L135.612 197.243H106.313L83.8932 236Z" fill="url(#paint1_linear_174_173)"/>
<path d="M190.832 101.107L175.767 127.213L172.878 122.054L190.832 101.107Z" fill="#401D0D" fill-opacity="0.2"/>
<path d="M129.666 171.322H139.985H150.407L135.605 197.222H106.139L129.666 171.322Z" fill="url(#paint2_linear_174_173)"/>
<path d="M452.375 200H436.125V178H379V200H362.75V155.188C362.75 148.646 363.875 142.625 366.125 137.125C368.375 131.625 371.5 126.896 375.5 122.938C379.5 118.979 384.229 115.896 389.688 113.688C395.146 111.479 401.104 110.375 407.562 110.375H444.188C445.312 110.375 446.375 110.583 447.375 111C448.375 111.417 449.25 112 450 112.75C450.75 113.5 451.333 114.375 451.75 115.375C452.167 116.375 452.375 117.438 452.375 118.562V200ZM379 161.75H436.125V126.625H407.562C407.062 126.625 406 126.708 404.375 126.875C402.792 127 400.938 127.354 398.812 127.938C396.729 128.521 394.521 129.417 392.188 130.625C389.854 131.833 387.708 133.5 385.75 135.625C383.792 137.75 382.167 140.417 380.875 143.625C379.625 146.792 379 150.646 379 155.188V161.75ZM559.75 191.812C559.75 192.979 559.542 194.062 559.125 195.062C558.708 196.062 558.125 196.938 557.375 197.688C556.667 198.396 555.812 198.958 554.812 199.375C553.812 199.792 552.729 200 551.562 200H492.938C491.438 200 489.812 199.833 488.062 199.5C486.354 199.125 484.646 198.562 482.938 197.812C481.271 197.062 479.667 196.104 478.125 194.938C476.583 193.729 475.208 192.292 474 190.625C472.833 188.917 471.896 186.958 471.188 184.75C470.479 182.5 470.125 179.979 470.125 177.188V133.188C470.125 131.688 470.292 130.083 470.625 128.375C471 126.625 471.562 124.917 472.312 123.25C473.062 121.542 474.042 119.917 475.25 118.375C476.458 116.833 477.896 115.479 479.562 114.312C481.271 113.104 483.229 112.146 485.438 111.438C487.646 110.729 490.146 110.375 492.938 110.375H559V126.625H492.938C490.812 126.625 489.188 127.188 488.062 128.312C486.938 129.438 486.375 131.104 486.375 133.312V177.188C486.375 179.271 486.938 180.896 488.062 182.062C489.229 183.188 490.854 183.75 492.938 183.75H543.5V163.375H500.25V147H551.562C552.729 147 553.812 147.229 554.812 147.688C555.812 148.104 556.667 148.688 557.375 149.438C558.125 150.188 558.708 151.062 559.125 152.062C559.542 153.021 559.75 154.062 559.75 155.188V191.812ZM666.125 162.5C666.125 167.958 665.167 172.979 663.25 177.562C661.375 182.146 658.771 186.104 655.438 189.438C652.104 192.729 648.146 195.312 643.562 197.188C638.979 199.062 634 200 628.625 200H584.75C583.583 200 582.5 199.792 581.5 199.375C580.5 198.958 579.625 198.396 578.875 197.688C578.167 196.938 577.604 196.062 577.188 195.062C576.771 194.062 576.562 192.979 576.562 191.812V118.562C576.562 117.438 576.771 116.375 577.188 115.375C577.604 114.375 578.167 113.5 578.875 112.75C579.625 112 580.5 111.417 581.5 111C582.5 110.583 583.583 110.375 584.75 110.375H628.625C634 110.375 638.979 111.312 643.562 113.188C648.146 115.062 652.104 117.667 655.438 121C658.771 124.292 661.375 128.25 663.25 132.875C665.167 137.458 666.125 142.458 666.125 147.875V162.5ZM649.875 147.875C649.875 144.708 649.354 141.812 648.312 139.188C647.312 136.562 645.875 134.333 644 132.5C642.125 130.625 639.875 129.188 637.25 128.188C634.667 127.146 631.792 126.625 628.625 126.625H592.812V183.75H628.625C631.792 183.75 634.667 183.25 637.25 182.25C639.875 181.208 642.125 179.771 644 177.938C645.875 176.062 647.312 173.833 648.312 171.25C649.354 168.625 649.875 165.708 649.875 162.5V147.875ZM755.75 163.375H704.438V147H755.75V163.375ZM763.062 200H704.438C702.188 200 699.729 199.604 697.062 198.812C694.396 198.021 691.917 196.729 689.625 194.938C687.375 193.104 685.479 190.75 683.938 187.875C682.438 184.958 681.688 181.396 681.688 177.188V118.562C681.688 117.438 681.896 116.375 682.312 115.375C682.729 114.375 683.292 113.5 684 112.75C684.75 112 685.625 111.417 686.625 111C687.625 110.583 688.708 110.375 689.875 110.375H763.062V126.625H697.938V177.188C697.938 179.312 698.5 180.938 699.625 182.062C700.75 183.188 702.396 183.75 704.562 183.75H763.062V200ZM819.75 142.375L847.125 110.375H869.312L830.75 155.312L869.062 200H847L819.75 168.25L792.625 200H770.5L808.75 155.312L770.375 110.375H792.375L819.75 142.375Z" fill="black"/>
<defs>
<linearGradient id="paint0_linear_174_173" x1="185.215" y1="100.76" x2="185.215" y2="235.959" gradientUnits="userSpaceOnUse">
<stop stop-color="#D65E1F"/>
<stop offset="1" stop-color="#BC4814"/>
</linearGradient>
<linearGradient id="paint1_linear_174_173" x1="122.389" y1="66" x2="122.389" y2="236" gradientUnits="userSpaceOnUse">
<stop stop-color="#DD6422"/>
<stop offset="1" stop-color="#BB4814"/>
</linearGradient>
<linearGradient id="paint2_linear_174_173" x1="137.921" y1="197.222" x2="116.768" y2="182.879" gradientUnits="userSpaceOnUse">
<stop stop-color="#401D0D"/>
<stop offset="0.947917" stop-color="#C34E17" stop-opacity="0"/>
</linearGradient>
</defs>
</svg>
