<svg width="847" height="186" viewBox="0 0 847 186" fill="none" xmlns="http://www.w3.org/2000/svg">
<path d="M63.655 180.957L86.8928 139.692L102.699 112.121L129.716 65.1198L145.629 37.0088L158.952 60.1236C160.988 63.8245 160.988 66.4151 158.952 70.116L111.026 153.386H173.386C177.457 153.386 178.752 150.61 177.087 147.834L172.461 139.692H133.787L149.515 112.121H185.599C187.564 112.785 188.625 113.3 190.225 115.267L213.91 156.531C219.832 166.709 210.395 180.957 201.327 180.957H63.655Z" fill="url(#paint0_linear_210_1495)"/>
<path d="M31.8275 181H0L99.9235 6.8741C106.03 -2.74814 122.869 -1.82293 128.235 6.8741L145.629 37.0518L129.715 65.1628L116.762 42.5875C114.667 40.9523 113.492 40.8982 111.396 42.5875L71.7969 111.979L102.699 112.164L86.8927 139.735H55.6981L31.8275 181Z" fill="url(#paint1_linear_210_1495)"/>
<path d="M145.686 37.3787L129.646 65.1744L126.57 59.6812L145.686 37.3787Z" fill="#401D0D" fill-opacity="0.2"/>
<path d="M80.5622 112.136H91.5487H102.645L86.8857 139.713H55.5131L80.5622 112.136Z" fill="url(#paint2_linear_210_1495)"/>
<path d="M373.308 145H354.899V120.078H290.188V145H271.779V94.2358C271.779 86.8254 273.054 80.0049 275.603 73.7744C278.151 67.5439 281.691 62.1867 286.223 57.7026C290.754 53.2186 296.111 49.7257 302.294 47.2241C308.478 44.7225 315.227 43.4717 322.543 43.4717H364.033C365.307 43.4717 366.511 43.7077 367.644 44.1797C368.776 44.6517 369.768 45.3125 370.617 46.1621C371.467 47.0117 372.128 48.0029 372.6 49.1357C373.072 50.2686 373.308 51.4722 373.308 52.7466V145ZM290.188 101.67H354.899V61.8799H322.543C321.977 61.8799 320.773 61.9743 318.933 62.1631C317.139 62.3047 315.039 62.7059 312.631 63.3667C310.271 64.0275 307.77 65.0423 305.126 66.4111C302.483 67.7799 300.052 69.668 297.834 72.0752C295.616 74.4824 293.775 77.5033 292.312 81.1377C290.896 84.7249 290.188 89.091 290.188 94.2358V101.67ZM494.943 135.725C494.943 137.047 494.707 138.274 494.235 139.407C493.763 140.54 493.103 141.531 492.253 142.38C491.451 143.183 490.483 143.82 489.35 144.292C488.217 144.764 486.99 145 485.668 145H419.257C417.558 145 415.717 144.811 413.735 144.434C411.8 144.009 409.864 143.372 407.929 142.522C406.041 141.672 404.224 140.587 402.478 139.265C400.731 137.896 399.174 136.268 397.805 134.38C396.483 132.445 395.421 130.226 394.619 127.725C393.816 125.176 393.415 122.32 393.415 119.158V69.314C393.415 67.6147 393.604 65.7975 393.981 63.8623C394.406 61.8799 395.043 59.9447 395.893 58.0566C396.743 56.1214 397.852 54.2806 399.221 52.5342C400.59 50.7878 402.218 49.2537 404.106 47.9321C406.041 46.5633 408.26 45.4777 410.761 44.6753C413.263 43.8729 416.095 43.4717 419.257 43.4717H494.094V61.8799H419.257C416.85 61.8799 415.009 62.5171 413.735 63.7915C412.46 65.0659 411.823 66.9539 411.823 69.4556V119.158C411.823 121.518 412.46 123.359 413.735 124.68C415.056 125.955 416.897 126.592 419.257 126.592H476.535V103.511H427.541V84.9609H485.668C486.99 84.9609 488.217 85.2205 489.35 85.7397C490.483 86.2118 491.451 86.8726 492.253 87.7222C493.103 88.5718 493.763 89.563 494.235 90.6958C494.707 91.7814 494.943 92.9614 494.943 94.2358V135.725ZM615.446 102.52C615.446 108.703 614.361 114.39 612.189 119.583C610.065 124.775 607.115 129.259 603.339 133.035C599.563 136.764 595.079 139.69 589.887 141.814C584.695 143.938 579.055 145 572.966 145H523.264C521.942 145 520.715 144.764 519.582 144.292C518.449 143.82 517.458 143.183 516.608 142.38C515.806 141.531 515.169 140.54 514.697 139.407C514.225 138.274 513.989 137.047 513.989 135.725V52.7466C513.989 51.4722 514.225 50.2686 514.697 49.1357C515.169 48.0029 515.806 47.0117 516.608 46.1621C517.458 45.3125 518.449 44.6517 519.582 44.1797C520.715 43.7077 521.942 43.4717 523.264 43.4717H572.966C579.055 43.4717 584.695 44.5337 589.887 46.6577C595.079 48.7817 599.563 51.7318 603.339 55.5078C607.115 59.2367 610.065 63.7207 612.189 68.96C614.361 74.152 615.446 79.8161 615.446 85.9521V102.52ZM597.038 85.9521C597.038 82.3649 596.448 79.0845 595.268 76.1108C594.135 73.1372 592.507 70.612 590.383 68.5352C588.259 66.4111 585.71 64.7827 582.736 63.6499C579.81 62.4699 576.553 61.8799 572.966 61.8799H532.397V126.592H572.966C576.553 126.592 579.81 126.025 582.736 124.893C585.71 123.713 588.259 122.084 590.383 120.007C592.507 117.883 594.135 115.358 595.268 112.432C596.448 109.458 597.038 106.154 597.038 102.52V85.9521ZM716.975 103.511H658.847V84.9609H716.975V103.511ZM725.258 145H658.847C656.298 145 653.514 144.552 650.493 143.655C647.472 142.758 644.663 141.295 642.067 139.265C639.519 137.188 637.371 134.521 635.625 131.265C633.925 127.961 633.076 123.925 633.076 119.158V52.7466C633.076 51.4722 633.312 50.2686 633.784 49.1357C634.256 48.0029 634.893 47.0117 635.695 46.1621C636.545 45.3125 637.536 44.6517 638.669 44.1797C639.802 43.7077 641.029 43.4717 642.351 43.4717H725.258V61.8799H651.484V119.158C651.484 121.565 652.121 123.406 653.396 124.68C654.67 125.955 656.534 126.592 658.989 126.592H725.258V145ZM789.475 79.7217L820.485 43.4717H845.62L801.936 94.3774L845.336 145H820.344L789.475 109.033L758.747 145H733.684L777.014 94.3774L733.542 43.4717H758.464L789.475 79.7217Z" fill="white"/>
<defs>
<linearGradient id="paint0_linear_210_1495" x1="139.706" y1="37.0088" x2="139.706" y2="180.957" gradientUnits="userSpaceOnUse">
<stop stop-color="#D65E1F"/>
<stop offset="1" stop-color="#BC4814"/>
</linearGradient>
<linearGradient id="paint1_linear_210_1495" x1="72.8146" y1="0" x2="72.8146" y2="181" gradientUnits="userSpaceOnUse">
<stop stop-color="#DD6422"/>
<stop offset="1" stop-color="#BB4814"/>
</linearGradient>
<linearGradient id="paint2_linear_210_1495" x1="89.3514" y1="139.713" x2="66.8291" y2="124.441" gradientUnits="userSpaceOnUse">
<stop stop-color="#401D0D"/>
<stop offset="0.947917" stop-color="#C34E17" stop-opacity="0"/>
</linearGradient>
</defs>
</svg>
