<svg width="310" height="310" viewBox="0 0 310 310" fill="none" xmlns="http://www.w3.org/2000/svg">
<circle cx="155" cy="155" r="155" fill="white"/>
<path d="M113.786 235.959L135.612 197.203L150.458 171.307L175.832 127.162L190.779 100.76L203.292 122.47C205.204 125.946 205.204 128.379 203.292 131.855L158.279 210.064H216.848C220.672 210.064 221.889 207.457 220.324 204.85L215.979 197.203H179.656L194.429 171.307H228.319C230.165 171.93 231.161 172.414 232.664 174.261L254.91 213.018C260.472 222.577 251.608 235.959 243.092 235.959H113.786Z" fill="url(#paint0_linear_210_1554)"/>
<path d="M83.8932 236H54L147.851 72.4563C153.586 63.4189 169.402 64.2879 174.442 72.4563L190.779 100.8L175.832 127.203L163.666 105.999C161.698 104.463 160.595 104.413 158.626 105.999L121.434 171.173L150.458 171.347L135.612 197.243H106.313L83.8932 236Z" fill="url(#paint1_linear_210_1554)"/>
<path d="M190.832 101.107L175.767 127.213L172.878 122.054L190.832 101.107Z" fill="#401D0D" fill-opacity="0.2"/>
<path d="M129.666 171.322H139.985H150.407L135.605 197.222H106.139L129.666 171.322Z" fill="url(#paint2_linear_210_1554)"/>
<defs>
<linearGradient id="paint0_linear_210_1554" x1="185.215" y1="100.76" x2="185.215" y2="235.959" gradientUnits="userSpaceOnUse">
<stop stop-color="#D65E1F"/>
<stop offset="1" stop-color="#BC4814"/>
</linearGradient>
<linearGradient id="paint1_linear_210_1554" x1="122.389" y1="66" x2="122.389" y2="236" gradientUnits="userSpaceOnUse">
<stop stop-color="#DD6422"/>
<stop offset="1" stop-color="#BB4814"/>
</linearGradient>
<linearGradient id="paint2_linear_210_1554" x1="137.921" y1="197.222" x2="116.768" y2="182.879" gradientUnits="userSpaceOnUse">
<stop stop-color="#401D0D"/>
<stop offset="0.947917" stop-color="#C34E17" stop-opacity="0"/>
</linearGradient>
</defs>
</svg>
