<svg width="216" height="181" viewBox="0 0 216 181" fill="none" xmlns="http://www.w3.org/2000/svg">
<path d="M63.655 180.957L86.8927 139.692L102.699 112.121L129.715 65.1197L145.629 37.0087L158.952 60.1235C160.988 63.8244 160.988 66.415 158.952 70.1159L111.026 153.385H173.386C177.457 153.385 178.752 150.61 177.087 147.834L172.461 139.692H133.786L149.515 112.121H185.599C187.563 112.785 188.625 113.3 190.225 115.266L213.91 156.531C219.832 166.709 210.394 180.957 201.327 180.957H63.655Z" fill="url(#paint0_linear_174_144)"/>
<path d="M31.8275 181H0L99.9235 6.8741C106.03 -2.74814 122.869 -1.82293 128.235 6.8741L145.629 37.0518L129.715 65.1628L116.762 42.5875C114.667 40.9523 113.492 40.8982 111.396 42.5875L71.7969 111.979L102.699 112.164L86.8927 139.735H55.6981L31.8275 181Z" fill="url(#paint1_linear_174_144)"/>
<path d="M145.686 37.3788L129.646 65.1746L126.57 59.6813L145.686 37.3788Z" fill="#401D0D" fill-opacity="0.2"/>
<path d="M80.5622 112.136H91.5487H102.645L86.8857 139.712H55.5131L80.5622 112.136Z" fill="url(#paint2_linear_174_144)"/>
<defs>
<linearGradient id="paint0_linear_174_144" x1="139.706" y1="37.0087" x2="139.706" y2="180.957" gradientUnits="userSpaceOnUse">
<stop stop-color="#D65E1F"/>
<stop offset="1" stop-color="#BC4814"/>
</linearGradient>
<linearGradient id="paint1_linear_174_144" x1="72.8146" y1="0" x2="72.8146" y2="181" gradientUnits="userSpaceOnUse">
<stop stop-color="#DD6422"/>
<stop offset="1" stop-color="#BB4814"/>
</linearGradient>
<linearGradient id="paint2_linear_174_144" x1="89.3514" y1="139.712" x2="66.8291" y2="124.441" gradientUnits="userSpaceOnUse">
<stop stop-color="#401D0D"/>
<stop offset="0.947917" stop-color="#C34E17" stop-opacity="0"/>
</linearGradient>
</defs>
</svg>
