<svg width="584" height="480" viewBox="0 0 584 480" fill="none" xmlns="http://www.w3.org/2000/svg">
<path d="M224.871 275.382L260.234 212.585L284.289 170.627L325.402 99.1L349.62 56.3203L369.895 91.4967C372.993 97.1287 372.993 101.071 369.895 106.703L296.961 233.424H391.86C398.056 233.424 400.027 229.2 397.492 224.976L390.452 212.585H331.598L355.534 170.627H410.446C413.436 171.637 415.051 172.421 417.486 175.414L453.531 238.211C462.542 253.699 448.181 275.382 434.382 275.382H224.871Z" fill="white"/>
<path d="M176.435 275.448H128L280.065 10.4611C289.357 -4.18215 314.983 -2.77415 323.15 10.4611L349.62 56.3858L325.402 99.1655L305.69 64.8101C302.501 62.3216 300.713 62.2393 297.524 64.8101L237.261 170.41L284.289 170.692L260.234 212.651H212.762L176.435 275.448Z" fill="white"/>
<path d="M349.707 56.8838L325.297 99.1837L320.615 90.824L349.707 56.8838Z" fill="#401D0D" fill-opacity="0.2"/>
<path d="M250.6 170.65H267.32H284.206L260.224 212.615H212.48L250.6 170.65Z" fill="url(#paint0_linear_233_1757)"/>
<path d="M110.308 439H91.8994V414.078H27.1875V439H8.7793V388.236C8.7793 380.825 10.0537 374.005 12.6025 367.774C15.1514 361.544 18.6914 356.187 23.2227 351.703C27.7539 347.219 33.1112 343.726 39.2944 341.224C45.4777 338.722 52.2274 337.472 59.5435 337.472H101.033C102.307 337.472 103.511 337.708 104.644 338.18C105.776 338.652 106.768 339.312 107.617 340.162C108.467 341.012 109.128 342.003 109.6 343.136C110.072 344.269 110.308 345.472 110.308 346.747V439ZM27.1875 395.67H91.8994V355.88H59.5435C58.9771 355.88 57.7734 355.974 55.9326 356.163C54.139 356.305 52.0386 356.706 49.6313 357.367C47.2713 358.028 44.7697 359.042 42.1265 360.411C39.4832 361.78 37.0524 363.668 34.834 366.075C32.6156 368.482 30.7747 371.503 29.3115 375.138C27.8955 378.725 27.1875 383.091 27.1875 388.236V395.67ZM231.943 429.725C231.943 431.047 231.707 432.274 231.235 433.407C230.763 434.54 230.103 435.531 229.253 436.38C228.451 437.183 227.483 437.82 226.35 438.292C225.217 438.764 223.99 439 222.668 439H156.257C154.558 439 152.717 438.811 150.735 438.434C148.8 438.009 146.864 437.372 144.929 436.522C143.041 435.672 141.224 434.587 139.478 433.265C137.731 431.896 136.174 430.268 134.805 428.38C133.483 426.445 132.421 424.226 131.619 421.725C130.816 419.176 130.415 416.32 130.415 413.158V363.314C130.415 361.615 130.604 359.798 130.981 357.862C131.406 355.88 132.043 353.945 132.893 352.057C133.743 350.121 134.852 348.281 136.221 346.534C137.59 344.788 139.218 343.254 141.106 341.932C143.041 340.563 145.26 339.478 147.761 338.675C150.263 337.873 153.095 337.472 156.257 337.472H231.094V355.88H156.257C153.85 355.88 152.009 356.517 150.735 357.792C149.46 359.066 148.823 360.954 148.823 363.456V413.158C148.823 415.518 149.46 417.359 150.735 418.68C152.056 419.955 153.897 420.592 156.257 420.592H213.535V397.511H164.541V378.961H222.668C223.99 378.961 225.217 379.221 226.35 379.74C227.483 380.212 228.451 380.873 229.253 381.722C230.103 382.572 230.763 383.563 231.235 384.696C231.707 385.781 231.943 386.961 231.943 388.236V429.725ZM352.446 396.52C352.446 402.703 351.361 408.39 349.189 413.583C347.065 418.775 344.115 423.259 340.339 427.035C336.563 430.764 332.079 433.69 326.887 435.814C321.695 437.938 316.055 439 309.966 439H260.264C258.942 439 257.715 438.764 256.582 438.292C255.449 437.82 254.458 437.183 253.608 436.38C252.806 435.531 252.169 434.54 251.697 433.407C251.225 432.274 250.989 431.047 250.989 429.725V346.747C250.989 345.472 251.225 344.269 251.697 343.136C252.169 342.003 252.806 341.012 253.608 340.162C254.458 339.312 255.449 338.652 256.582 338.18C257.715 337.708 258.942 337.472 260.264 337.472H309.966C316.055 337.472 321.695 338.534 326.887 340.658C332.079 342.782 336.563 345.732 340.339 349.508C344.115 353.237 347.065 357.721 349.189 362.96C351.361 368.152 352.446 373.816 352.446 379.952V396.52ZM334.038 379.952C334.038 376.365 333.448 373.084 332.268 370.111C331.135 367.137 329.507 364.612 327.383 362.535C325.259 360.411 322.71 358.783 319.736 357.65C316.81 356.47 313.553 355.88 309.966 355.88H269.397V420.592H309.966C313.553 420.592 316.81 420.025 319.736 418.893C322.71 417.713 325.259 416.084 327.383 414.007C329.507 411.883 331.135 409.358 332.268 406.432C333.448 403.458 334.038 400.154 334.038 396.52V379.952ZM453.975 397.511H395.847V378.961H453.975V397.511ZM462.258 439H395.847C393.298 439 390.514 438.552 387.493 437.655C384.472 436.758 381.663 435.295 379.067 433.265C376.519 431.188 374.371 428.521 372.625 425.265C370.925 421.961 370.076 417.925 370.076 413.158V346.747C370.076 345.472 370.312 344.269 370.784 343.136C371.256 342.003 371.893 341.012 372.695 340.162C373.545 339.312 374.536 338.652 375.669 338.18C376.802 337.708 378.029 337.472 379.351 337.472H462.258V355.88H388.484V413.158C388.484 415.565 389.121 417.406 390.396 418.68C391.67 419.955 393.534 420.592 395.989 420.592H462.258V439ZM526.475 373.722L557.485 337.472H582.62L538.936 388.377L582.336 439H557.344L526.475 403.033L495.747 439H470.684L514.014 388.377L470.542 337.472H495.464L526.475 373.722Z" fill="white"/>
<defs>
<linearGradient id="paint0_linear_233_1757" x1="263.976" y1="212.615" x2="229.701" y2="189.376" gradientUnits="userSpaceOnUse">
<stop stop-color="#2E2E2E"/>
<stop offset="0.947917" stop-color="#DEDEDE" stop-opacity="0"/>
</linearGradient>
</defs>
</svg>
